PathFileType	4	(X/Y/Z)	F:\MotionCapture\20160217\3\Generated_files\EMG_Fprce_test02-Dynamic.trc
DataRate	CameraRate	NumFrames	NumMarkers	Units	OrigDataRate	OrigDataStartFrame	OrigNumFrames
120.00	120.00	       4	39	mm	120.00	176	       703
Frame#	Time	Top.Head			Front.Head			Rear.Head			R.Shoulder			R.Offset			R.Elbow			R.Wrist			L.Shoulder			L.Elbow			L.Wrist			R.ASIS			L.ASIS			V.Sacral			R.Thigh			R.Knee			R.Shank			R.Ankle			R.Heel			R.Toe			L.Thigh			L.Knee			L.Shank			L.Ankle			L.Heel			L.Toe			R1			R2			R3			R4			R5			R6			R7			L1			L2			L3			L4			L5			L6			L7			V_Mid_ASIS			V_Pelvis_Origin			V_R.Hip_JC			V_L.Hip_JC			V_R.Knee_JC			V_L.Knee_JC			V_R.Ankle_JC			V_L.Ankle_JC			V_Mid_Hip			V_Mid_Shoulder			V_R.Hand			V_L.Hand			V_R.Toe_Offset_Static			V_L.Toe_Offset_Static			V_R.Toe_Offset			V_L.Toe_Offset			
		X1	Y1	Z1	X2	Y2	Z2	X3	Y3	Z3	X4	Y4	Z4	X5	Y5	Z5	X6	Y6	Z6	X7	Y7	Z7	X8	Y8	Z8	X9	Y9	Z9	X10	Y10	Z10	X11	Y11	Z11	X12	Y12	Z12	X13	Y13	Z13	X14	Y14	Z14	X15	Y15	Z15	X16	Y16	Z16	X17	Y17	Z17	X18	Y18	Z18	X19	Y19	Z19	X20	Y20	Z20	X21	Y21	Z21	X22	Y22	Z22	X23	Y23	Z23	X24	Y24	Z24	X25	Y25	Z25	X26	Y26	Z26	X27	Y27	Z27	X28	Y28	Z28	X29	Y29	Z29	X30	Y30	Z30	X31	Y31	Z31	X32	Y32	Z32	X33	Y33	Z33	X34	Y34	Z34	X35	Y35	Z35	X36	Y36	Z36	X37	Y37	Z37	X38	Y38	Z38	X39	Y39	Z39	

176	1.458	2082.94604	89.02711	1691.61646	1965.24976	89.59309	1614.94958	2186.22339	77.40288	1616.79956				2261.13110	-15.11339	1255.53088	1865.96960	-173.53320	879.63354	2033.14111	-230.51900	1067.00708	2077.00635	-133.16220	1389.57874				2147.48340	269.36728	1380.82202	2109.79932	203.70490	916.35248	2100.15918	-84.51684	894.87054	2328.43896	56.81854	927.00153	1950.53235	191.89819	619.95428	1963.65515	241.84149	498.05948	1901.76489	179.13040	270.50516	1914.22131	248.60295	96.00130	1965.99097	183.19318	47.65607	1774.21741	236.42032	111.96362	2152.23218	-21.75350	568.57709	2293.08936	-67.85997	439.92682	2325.97705	13.76847	306.90268	2473.27148	-37.94149	69.81169	2541.97534	16.49255	63.41421	2338.79443	-39.40161	45.11875	1730.86023	222.42625	129.77145	1767.48694	202.11188	120.25915	1858.31836	164.40489	101.60098	1920.49976	156.97406	63.50339	1941.97083	229.88971	57.42430	1867.49097	263.77707	73.18336	1805.18567	271.75140	89.26260	2293.89600	-16.36577	39.49453	2325.77319	-0.08511	47.53125	2418.71899	46.23123	51.88923	2502.53149	47.43685	58.75354	2515.63354	-25.40245	59.33342	2444.29541	-53.54502	39.71858	2380.90210	-71.03535	43.15631																																																	2276.32373	368.35410	1089.87048	2252.50562	413.93600	832.04572	2143.00049	-8.21354	-14.95494	
177	1.467	2074.81519	90.41109	1689.82837	1957.34290	90.80426	1613.53552	2178.29834	78.32130	1615.20813				2253.22192	-14.15909	1253.97852	1851.56555	-169.84215	882.31799	2022.16260	-228.83487	1065.56372	2069.06641	-131.77260	1388.24561				2139.64624	270.91071	1378.98901	2101.14893	203.88591	914.65234	2093.08252	-84.19909	892.88464	2320.59766	58.01205	925.45544	1942.39929	190.98337	618.06097	1954.33801	240.67552	496.47580	1890.15088	178.72203	269.94583	1898.87720	250.90390	96.33533	1951.57275	183.65613	45.90023	1759.92993	236.07376	113.00239	2145.45776	-21.96006	567.21808	2288.52881	-67.42239	439.23224	2322.90210	13.51003	306.34839	2472.83887	-37.82743	71.26882	2541.63770	16.74728	65.78364	2338.81567	-39.53365	45.08203	1716.78967	222.27098	131.12407	1753.58044	201.74887	121.72308	1844.61426	165.40242	101.04007	1905.87024	158.89355	62.92220	1926.68188	231.54576	56.68272	1848.40967	262.00769	69.45185	1790.63184	272.56561	90.39133	2293.80371	-17.12953	39.25582	2325.80640	-0.44169	47.39056	2418.72168	46.40059	52.63224	2501.85327	47.80167	60.00543	2515.28491	-25.34820	61.27098	2444.18384	-53.68353	40.33145	2380.81934	-71.01208	43.03821																																																	2270.69434	369.01215	1089.21533	2086.76465	106.72327	499.46414	2252.27344	415.57043	831.51855	2126.22437	-6.19001	-12.19195	
178	1.475	2066.98535	91.24822	1688.69702	1949.45325	91.65178	1612.13892	2170.79102	79.66257	1613.66931				2245.20020	-12.78616	1252.51843	1837.67578	-166.23166	885.13440	2011.50244	-227.38771	1065.00806	2061.13647	-130.30983	1387.15063				2131.44653	272.27341	1377.71484	2092.33228	204.83719	913.15894	2086.45703	-83.94923	891.86139	2312.52637	59.25718	923.93567	1934.24634	190.44092	615.37152	1945.08447	239.67856	495.26633	1879.21631	178.29424	269.05035	1885.24280	251.98969	95.99170	1937.95984	186.67567	45.45024	1746.56726	236.08310	113.51402	2138.82153	-22.76397	564.98547	2284.50635	-67.65958	438.98785	2319.86499	13.52951	306.08673	2474.07349	-41.09227	75.71061	2541.08545	16.91408	68.45695	2338.87598	-39.47003	45.03878	1703.78223	221.62570	131.90181	1740.17407	201.77043	120.85698	1831.43848	165.51180	100.42985	1892.43323	159.88744	61.46736	1912.15466	232.77533	56.01709	1838.35413	265.84363	73.58243	1776.53601	272.92905	90.96027	2293.74854	-17.51639	39.34365	2325.72144	-0.49796	47.32240	2417.94604	45.97671	53.07680	2502.03931	48.59578	63.02079	2514.78955	-25.52152	63.34840	2444.00415	-53.68235	41.00671	2380.68115	-71.00429	43.02922																																																	2265.24902	369.83203	1089.12927	2251.67651	417.40158	831.47949	2689.00513	-428.13690	728.19934	
179	1.483	2059.26440	92.59626	1687.44495	1940.97620	93.65969	1611.10815	2162.56177	81.07265	1612.02295				2236.87646	-11.45275	1251.21375	1823.45483	-162.99980	888.23096	2001.10681	-225.49718	1063.98779	2052.60010	-128.83006	1385.54895				2123.20923	273.82486	1376.25122	2083.04639	205.51111	911.82141	2078.60205	-83.74134	889.96637	2304.08228	60.60734	922.63733	1925.57410	189.89168	613.33453	1937.01270	239.42805	493.87680	1869.33081	178.92299	268.54138	1873.37390	251.67395	94.93948	1926.00928	187.62630	44.46789	1734.52124	235.95001	112.96091	2133.05908	-23.05749	564.00037	2280.08740	-67.57786	438.94327	2315.82690	13.36996	305.44891	2473.91748	-41.24435	77.46279	2540.22754	16.80820	71.43309	2338.86157	-39.57469	45.02948	1692.03906	221.18727	131.33112	1727.79529	201.45468	119.93469	1818.81323	165.88208	99.39068	1880.95801	161.32602	60.03194	1899.95325	233.71603	55.56760	1826.00439	266.41077	73.36814	1763.88086	273.14307	90.49484	2293.38721	-17.74409	39.13220	2325.59863	-0.52322	47.30991	2417.83862	46.08993	54.39173	2500.38477	47.65209	64.14039	2513.99585	-25.45045	65.35131	2443.65332	-53.64125	41.74087	2380.53271	-71.09221	43.02031																																																	2259.43262	370.48459	1089.01392	2250.62036	418.79959	831.50708	
